<?xml version="1.0" standalone="no"?>
<!DOCTYPE svg PUBLIC "-//W3C//DTD SVG 20010904//EN"
 "http://www.w3.org/TR/2001/REC-SVG-20010904/DTD/svg10.dtd">
<svg version="1.0" xmlns="http://www.w3.org/2000/svg"
 width="225.000000pt" height="225.000000pt" viewBox="0 0 225.000000 225.000000"
 preserveAspectRatio="xMidYMid meet">

<g transform="translate(0.000000,225.000000) scale(0.100000,-0.100000)"
fill="#000000" stroke="none">
<path d="M1060 2100 l0 -40 71 0 70 0 -3 38 -3 37 -67 3 -68 3 0 -41z"/>
<path d="M1035 2030 c-3 -5 0 -13 8 -16 24 -9 172 0 170 11 -4 14 -170 19
-178 5z"/>
<path d="M1015 1950 l-16 -30 126 0 126 0 -16 30 -16 30 -94 0 -94 0 -16 -30z"/>
<path d="M987 1883 c-2 -5 -4 -60 -3 -123 l1 -115 140 0 140 0 1 123 1 122
-138 0 c-76 0 -140 -3 -142 -7z"/>
<path d="M986 1604 c-13 -12 -16 -41 -16 -150 l0 -134 155 0 155 0 0 134 c0
109 -3 138 -16 150 -23 23 -255 23 -278 0z"/>
<path d="M932 1288 c-35 -35 -17 -38 193 -38 194 0 205 1 205 19 0 10 -7 22
-16 25 -31 12 -369 7 -382 -6z"/>
<path d="M862 1208 c-7 -7 -12 -41 -12 -83 0 -89 15 -108 81 -103 l44 3 2 98
2 97 -53 0 c-28 0 -57 -5 -64 -12z"/>
<path d="M1000 1120 l0 -100 125 0 125 0 0 100 0 100 -125 0 -125 0 0 -100z"/>
<path d="M1275 1123 l0 -98 44 -3 c66 -5 81 14 81 103 0 42 -5 76 -12 83 -7 7
-35 12 -63 12 l-51 0 1 -97z"/>
<path d="M920 970 l0 -30 210 0 210 0 0 30 0 30 -210 0 -210 0 0 -30z"/>
<path d="M864 896 c-3 -7 -4 -42 -2 -77 3 -58 5 -64 26 -67 21 -3 22 -1 22 77
0 75 -2 81 -20 81 -11 0 -23 -6 -26 -14z"/>
<path d="M930 830 l0 -80 195 0 195 0 0 80 0 80 -195 0 -195 0 0 -80z"/>
<path d="M1340 830 c0 -79 1 -81 23 -78 21 3 22 8 22 78 0 70 -1 75 -22 78
-22 3 -23 1 -23 -78z"/>
<path d="M953 701 c-9 -14 -9 -21 0 -30 8 -8 8 -14 0 -22 -9 -9 -9 -16 0 -31
10 -15 9 -21 -3 -29 -11 -8 -12 -12 -2 -16 6 -2 12 -11 12 -18 0 -7 -6 -16
-12 -19 -10 -5 -10 -7 0 -12 6 -3 12 -12 12 -19 0 -7 -6 -16 -12 -19 -10 -5
-10 -7 0 -12 6 -3 12 -12 12 -19 0 -7 -6 -16 -12 -19 -10 -5 -10 -7 0 -12 15
-7 16 -31 2 -36 -7 -2 -5 -15 5 -36 l16 -32 154 0 154 0 16 32 c10 21 12 34 5
36 -14 5 -13 29 3 36 10 5 10 7 0 12 -7 3 -13 12 -13 19 0 7 6 16 13 19 10 5
10 7 0 12 -7 3 -13 12 -13 19 0 7 6 16 13 19 10 5 10 7 0 12 -7 3 -13 12 -13
19 0 7 6 16 13 19 10 5 10 7 0 12 -7 3 -13 12 -13 19 0 7 6 15 13 18 9 3 9 7
-2 20 -9 12 -10 21 -3 30 7 8 7 17 -2 30 -12 15 -32 17 -172 17 -145 0 -160
-2 -171 -19z"/>
<path d="M1062 258 c2 -25 8 -34 26 -36 14 -2 22 -10 22 -23 0 -10 7 -19 15
-19 8 0 15 9 15 19 0 13 8 21 22 23 16 2 24 12 29 36 l6 32 -69 0 -69 0 3 -32z"/>
<path d="M1220 227 c0 -36 -5 -68 -12 -75 -7 -7 -34 -12 -60 -12 -38 0 -48 -4
-48 -16 0 -27 108 -14 132 16 24 29 27 150 3 150 -12 0 -15 -14 -15 -63z"/>
</g>
</svg>
