<?xml version="1.0" standalone="no"?>
<!DOCTYPE svg PUBLIC "-//W3C//DTD SVG 20010904//EN"
 "http://www.w3.org/TR/2001/REC-SVG-20010904/DTD/svg10.dtd">
<svg version="1.0" xmlns="http://www.w3.org/2000/svg"
 width="244.000000pt" height="207.000000pt" viewBox="0 0 244.000000 207.000000"
 preserveAspectRatio="xMidYMid meet">

<g transform="translate(0.000000,207.000000) scale(0.100000,-0.100000)"
fill="#000000" stroke="none">
<path d="M722 1908 c-7 -7 -32 -11 -56 -9 -118 7 -185 -46 -262 -208 -107
-223 -146 -261 -267 -261 -37 0 -67 -3 -67 -7 1 -19 394 -489 413 -495 69 -20
161 3 216 55 20 19 59 84 98 166 97 198 143 241 264 241 58 0 63 -2 94 -36
l33 -36 -156 -189 c-86 -105 -158 -193 -160 -198 -2 -5 4 -11 12 -14 10 -4 63
52 166 176 84 100 156 183 160 185 4 1 73 -78 153 -176 163 -199 173 -210 188
-195 7 7 -38 70 -138 192 -81 101 -154 190 -161 200 -10 15 -8 23 15 53 59 76
197 61 272 -28 17 -22 48 -73 67 -114 82 -173 99 -202 130 -230 45 -39 129
-65 185 -56 43 6 48 11 239 242 107 130 198 242 202 248 6 10 -9 13 -60 13
-120 0 -159 36 -257 240 -36 76 -78 151 -93 167 -41 43 -98 66 -169 66 -35 0
-63 4 -63 10 0 34 -52 -20 -266 -275 -210 -251 -240 -283 -254 -270 -8 7 -114
135 -235 284 -121 149 -222 270 -225 271 -4 0 -11 -5 -18 -12z"/>
<path d="M136 831 c-19 -7 -19 -8 3 -14 13 -3 20 -10 16 -16 -4 -7 3 -11 17
-12 l23 0 -23 -10 c-13 -5 -20 -13 -17 -19 3 -5 -2 -10 -12 -10 -15 0 -16 -2
-3 -10 11 -7 11 -10 2 -10 -7 0 -11 -4 -7 -9 3 -5 -2 -17 -11 -25 -14 -15 -14
-16 5 -16 14 0 19 -5 15 -15 -4 -10 -20 -15 -45 -15 -53 0 -49 -15 7 -29 46
-12 47 -12 25 -28 -14 -9 -20 -21 -16 -31 3 -8 0 -19 -7 -24 -10 -6 -10 -10 2
-17 12 -9 12 -11 -3 -17 -14 -5 -15 -9 -6 -20 9 -11 8 -14 -7 -15 -18 0 -18
-1 1 -9 l20 -9 -20 0 c-17 -1 -17 -3 -5 -11 12 -8 10 -10 -10 -11 -19 -1 -20
-3 -7 -6 14 -3 17 -11 13 -26 -3 -11 0 -27 6 -34 7 -9 7 -13 -1 -13 -7 0 -9
-5 -6 -10 3 -6 0 -10 -7 -11 -7 -1 -2 -5 12 -9 23 -7 23 -8 4 -9 -27 -1 -41
-31 -16 -32 11 -1 8 -4 -8 -9 -14 -4 -18 -9 -10 -10 11 -1 9 -4 -5 -10 l-20
-9 20 0 c17 -1 17 -3 5 -11 -10 -7 7 -10 57 -10 l72 0 6 33 c3 17 14 79 23
137 l18 105 39 2 c22 1 32 -1 23 -4 -20 -5 -22 -12 -9 -32 6 -9 5 -24 0 -39
-7 -18 -6 -28 3 -34 10 -6 10 -8 -2 -8 -8 0 -16 -10 -16 -22 -3 -32 -9 -56
-17 -64 -4 -4 -2 -13 4 -20 7 -8 7 -14 -1 -19 -5 -3 -10 -13 -10 -21 0 -12 13
-14 67 -12 l68 3 17 100 c25 149 24 169 -13 198 l-31 24 31 6 c41 9 63 54 69
144 6 87 -9 117 -65 132 -43 12 -228 13 -257 2z m192 -189 c3 -27 -1 -34 -25
-43 -25 -9 -26 -12 -10 -20 26 -15 21 -39 -9 -39 -26 0 -26 1 -19 48 12 84 16
93 39 90 16 -2 22 -11 24 -36z"/>
<path d="M660 830 c0 -5 -15 -11 -32 -11 -24 -1 -27 -3 -10 -6 41 -8 19 -43
-34 -53 l-39 -8 41 -1 c38 -1 41 -3 37 -26 -4 -20 -13 -25 -52 -32 l-46 -7 40
-6 c35 -4 40 -8 37 -28 -3 -31 -23 -49 -58 -55 l-29 -4 29 -2 c26 -1 28 -4 22
-28 -4 -16 -8 -40 -8 -55 -1 -16 -5 -28 -10 -28 -4 0 -8 -7 -8 -15 0 -9 -12
-21 -27 -27 l-28 -11 30 -7 30 -7 -30 -12 c-17 -7 -25 -15 -19 -19 6 -4 13
-17 17 -30 4 -18 -1 -25 -26 -37 -18 -8 -25 -13 -17 -12 29 4 28 -39 -1 -48
-19 -6 -20 -8 -3 -26 14 -15 31 -19 84 -19 l67 0 14 53 14 52 44 3 c40 3 43 2
32 -12 -10 -12 -10 -16 -2 -16 8 0 6 -6 -4 -16 -13 -14 -14 -19 -3 -25 10 -6
8 -9 -7 -9 -12 0 -16 -3 -9 -10 5 -5 41 -12 80 -16 l71 -7 6 78 c4 43 7 185 7
317 l0 238 -100 0 c-60 0 -100 -4 -100 -10z m74 -257 c-3 -60 -11 -116 -16
-125 -8 -17 -38 -24 -50 -13 -3 3 5 43 18 88 14 45 29 99 35 120 5 20 12 37
15 37 3 0 2 -48 -2 -107z"/>
<path d="M1411 818 c-5 -13 -5 -24 0 -26 5 -2 4 -12 -1 -22 -6 -11 -10 -23 -9
-27 1 -4 0 -11 -1 -15 -6 -20 -5 -34 5 -40 6 -5 5 -8 -3 -8 -7 0 -11 -4 -8 -9
3 -5 -13 -18 -37 -29 l-42 -21 33 -1 c31 0 42 -13 22 -25 -16 -10 -12 -25 8
-25 11 0 13 -3 5 -8 -15 -10 -35 -61 -27 -73 3 -5 1 -9 -3 -9 -5 0 -8 -20 -8
-45 0 -30 4 -45 13 -45 7 0 10 -4 7 -10 -3 -6 2 -10 11 -10 25 0 5 -17 -26
-22 l-25 -5 25 -11 25 -11 -25 0 c-18 -1 -26 -7 -27 -21 -1 -11 4 -20 10 -20
8 0 7 -4 -2 -9 -8 -5 -16 -19 -18 -30 -3 -20 2 -21 70 -21 l73 0 47 292 c26
161 47 301 47 311 0 14 -10 17 -65 17 -59 0 -67 -2 -74 -22z"/>
<path d="M1670 825 c-14 -8 -21 -14 -15 -15 5 0 4 -5 -3 -12 -7 -7 -12 -22
-12 -34 0 -12 -6 -25 -12 -27 -8 -3 -6 -6 5 -6 29 -1 3 -39 -30 -44 -27 -4
-27 -4 -3 -6 23 -1 25 -5 26 -46 1 -25 -3 -45 -8 -45 -5 0 -6 -5 -3 -10 3 -6
-1 -13 -10 -16 -12 -5 -13 -9 -3 -21 9 -11 9 -16 -1 -23 -10 -5 -11 -13 -3
-26 13 -23 -7 -44 -44 -44 -27 0 -27 -1 -8 -15 10 -8 35 -15 54 -16 l35 -1
-27 -11 c-30 -12 -44 -39 -32 -59 13 -21 12 -48 -2 -48 -7 0 -13 -8 -13 -17 1
-10 -2 -28 -6 -40 -7 -22 -5 -23 53 -23 39 0 62 4 65 13 2 6 13 67 23 135 12
82 23 122 31 122 7 0 12 -6 11 -12 -2 -7 7 -14 19 -16 21 -3 21 -4 3 -22 -19
-19 -17 -58 4 -72 8 -6 7 -11 -3 -17 -11 -7 -10 -10 5 -14 16 -4 17 -5 2 -6
-22 -1 -24 -19 -3 -27 10 -4 12 -12 7 -22 -5 -10 -7 -23 -6 -29 1 -7 2 -17 3
-23 0 -5 28 -10 61 -10 54 0 60 2 65 23 3 12 21 119 40 237 49 297 41 270 79
270 30 0 87 -29 58 -30 -7 0 -10 -4 -7 -10 3 -5 0 -10 -7 -10 -9 0 -9 -3 2
-10 13 -8 13 -10 -1 -10 -22 0 -48 -30 -28 -31 8 0 5 -4 -6 -9 -19 -8 -19 -9
2 -9 20 -1 21 -4 13 -25 -5 -13 -6 -27 -3 -30 4 -3 -5 -6 -18 -7 l-24 -1 25
-8 c14 -4 19 -8 11 -9 -7 -1 -11 -7 -7 -16 4 -11 -3 -17 -25 -22 -28 -5 -29
-6 -11 -19 22 -15 23 -57 2 -91 -11 -17 -11 -24 -1 -36 7 -9 8 -17 2 -19 -5
-1 -7 -16 -4 -31 4 -21 14 -32 36 -40 27 -9 29 -11 12 -17 -18 -6 -16 -9 12
-23 45 -24 74 -21 119 9 34 24 39 25 50 10 10 -14 84 -36 84 -25 0 2 11 69 25
149 14 80 25 151 25 158 0 10 -20 12 -82 10 l-83 -3 0 -32 c0 -18 -3 -33 -7
-33 -5 0 -8 -4 -8 -10 0 -5 9 -10 19 -10 22 0 37 -16 21 -22 -6 -2 -13 -18
-16 -36 -4 -27 -1 -34 17 -41 23 -8 23 -8 -4 -15 -15 -3 -27 -11 -27 -16 0
-15 -50 -12 -56 3 -5 14 39 305 57 370 10 37 26 45 62 31 15 -5 12 -54 -4 -54
-17 0 -9 -20 9 -21 11 -1 9 -4 -8 -9 -14 -4 -19 -8 -11 -9 11 -1 11 -4 1 -16
-11 -13 -3 -15 58 -15 39 0 73 4 77 10 11 18 8 136 -4 159 -19 35 -94 64 -147
56 -24 -3 -46 -10 -49 -15 -3 -4 -29 -12 -58 -16 -48 -7 -50 -8 -22 -15 17 -3
22 -7 13 -8 -10 0 -18 -5 -18 -11 0 -5 -23 -10 -50 -10 l-50 0 6 40 7 40 -56
0 c-31 0 -59 -4 -62 -10 -3 -5 -1 -10 5 -10 7 0 5 -6 -4 -15 -8 -9 -13 -22
-10 -30 4 -11 -1 -15 -17 -16 -21 -1 -20 -2 6 -9 17 -4 25 -8 19 -9 -19 -2
-23 -61 -5 -71 14 -8 14 -9 -1 -10 -12 0 -15 -5 -11 -16 3 -9 0 -20 -8 -25
-11 -7 -12 -12 -1 -29 11 -18 10 -20 -11 -20 -23 0 -24 6 -43 133 l-19 132
-40 2 c-22 2 -51 -4 -65 -12z"/>
<path d="M1085 821 c-43 -5 -53 -8 -35 -12 l25 -6 -27 -2 c-16 0 -28 -5 -28
-11 0 -5 -9 -10 -21 -10 -16 0 -20 -5 -17 -27 2 -21 -3 -30 -22 -40 l-25 -13
33 0 c49 0 29 -20 -21 -21 l-42 -2 35 -7 c34 -6 32 -9 -10 -23 -9 -4 -7 -6 7
-6 16 -1 21 -6 17 -16 -5 -11 1 -15 26 -15 20 0 29 -4 24 -11 -3 -6 -16 -8
-29 -5 -19 5 -24 1 -28 -23 -4 -20 -13 -31 -29 -34 l-23 -4 23 -2 c21 -1 30
-20 15 -35 -12 -11 -10 -70 2 -78 6 -5 5 -8 -3 -8 -7 0 -10 -5 -7 -10 3 -6 -4
-14 -16 -18 l-23 -9 25 -6 c17 -5 21 -9 12 -18 -15 -15 -4 -49 16 -49 12 0 13
-2 3 -9 -15 -9 -2 -22 31 -34 10 -4 16 -11 13 -16 -17 -26 121 -28 172 -2 64
32 93 81 107 174 l7 47 -58 0 c-69 0 -85 -8 -79 -38 2 -12 -1 -22 -6 -22 -6 0
-8 -4 -4 -9 3 -5 0 -13 -5 -16 -7 -5 -5 -12 7 -21 17 -13 17 -13 0 -14 -10 0
-15 -4 -12 -10 9 -14 -44 -25 -58 -11 -11 11 1 107 40 319 17 95 33 111 80 87
15 -8 22 -15 14 -15 -7 0 -11 -6 -8 -14 4 -9 -1 -17 -11 -19 -15 -4 -15 -5 1
-6 17 -1 17 -2 2 -17 -12 -12 -13 -19 -4 -30 9 -11 9 -14 -1 -14 -10 0 -10 -3
-1 -14 10 -11 8 -15 -6 -19 -10 -3 14 -5 53 -6 81 -1 77 -5 90 100 8 74 -13
124 -60 144 -36 15 -57 16 -161 6z"/>
</g>
</svg>
